<mxfile host="www.draw.io" modified="2019-11-11T11:27:01.085Z" agent="Mozilla/5.0 (Macintosh; Intel Mac OS X 10_14_2) AppleWebKit/537.36 (KHTML, like Gecko) Chrome/78.0.3904.70 Safari/537.36" etag="YoVghCJISPYUhIWuetMD" version="12.2.3" type="github" pages="1">
  <diagram name="Page-1" id="13e1069c-82ec-6db2-03f1-153e76fe0fe0">
    <mxGraphModel dx="1426" dy="642" grid="1" gridSize="10" guides="1" tooltips="1" connect="1" arrows="1" fold="1" page="1" pageScale="1" pageWidth="1100" pageHeight="850" background="#ffffff" math="0" shadow="0">
      <root>
        <mxCell id="0"/>
        <mxCell id="1" parent="0"/>
        <mxCell id="7baba1c4bc27f4b0-2" value=":Redis" style="shape=umlLifeline;perimeter=lifelinePerimeter;whiteSpace=wrap;html=1;container=1;collapsible=0;recursiveResize=0;outlineConnect=0;rounded=1;shadow=0;comic=0;labelBackgroundColor=none;strokeWidth=1;fontFamily=Verdana;fontSize=12;align=center;fillColor=#d5e8d4;strokeColor=#82b366;" parent="1" vertex="1">
          <mxGeometry x="409" y="80" width="100" height="580" as="geometry"/>
        </mxCell>
        <mxCell id="7baba1c4bc27f4b0-10" value="" style="html=1;points=[];perimeter=orthogonalPerimeter;rounded=0;shadow=0;comic=0;labelBackgroundColor=none;strokeWidth=1;fontFamily=Verdana;fontSize=12;align=center;" parent="7baba1c4bc27f4b0-2" vertex="1">
          <mxGeometry x="45" y="80" width="10" height="440" as="geometry"/>
        </mxCell>
        <mxCell id="7baba1c4bc27f4b0-3" value=":PlanTools" style="shape=umlLifeline;perimeter=lifelinePerimeter;whiteSpace=wrap;html=1;container=1;collapsible=0;recursiveResize=0;outlineConnect=0;rounded=1;shadow=0;comic=0;labelBackgroundColor=none;strokeWidth=1;fontFamily=Verdana;fontSize=12;align=center;fillColor=#e1d5e7;strokeColor=#9673a6;" parent="1" vertex="1">
          <mxGeometry x="569" y="80" width="100" height="580" as="geometry"/>
        </mxCell>
        <mxCell id="7baba1c4bc27f4b0-13" value="" style="html=1;points=[];perimeter=orthogonalPerimeter;rounded=0;shadow=0;comic=0;labelBackgroundColor=none;strokeWidth=1;fontFamily=Verdana;fontSize=12;align=center;" parent="7baba1c4bc27f4b0-3" vertex="1">
          <mxGeometry x="50" y="80" width="10" height="440" as="geometry"/>
        </mxCell>
        <mxCell id="7baba1c4bc27f4b0-4" value=":AppXXX" style="shape=umlLifeline;perimeter=lifelinePerimeter;whiteSpace=wrap;html=1;container=1;collapsible=0;recursiveResize=0;outlineConnect=0;rounded=1;shadow=0;comic=0;labelBackgroundColor=none;strokeWidth=1;fontFamily=Verdana;fontSize=12;align=center;fillColor=#60a917;strokeColor=#2D7600;fontColor=#ffffff;" parent="1" vertex="1">
          <mxGeometry x="709" y="80" width="100" height="580" as="geometry"/>
        </mxCell>
        <mxCell id="7baba1c4bc27f4b0-16" value="" style="html=1;points=[];perimeter=orthogonalPerimeter;rounded=0;shadow=0;comic=0;labelBackgroundColor=none;strokeWidth=1;fontFamily=Verdana;fontSize=12;align=center;" parent="7baba1c4bc27f4b0-4" vertex="1">
          <mxGeometry x="45" y="80" width="10" height="440" as="geometry"/>
        </mxCell>
        <mxCell id="7baba1c4bc27f4b0-8" value="执行平台" style="shape=umlLifeline;perimeter=lifelinePerimeter;whiteSpace=wrap;html=1;container=1;collapsible=0;recursiveResize=0;outlineConnect=0;rounded=1;shadow=0;comic=0;labelBackgroundColor=none;strokeWidth=1;fontFamily=Verdana;fontSize=12;align=center;fillColor=#fff2cc;strokeColor=#d6b656;" parent="1" vertex="1">
          <mxGeometry x="230" y="80" width="100" height="580" as="geometry"/>
        </mxCell>
        <mxCell id="7baba1c4bc27f4b0-9" value="" style="html=1;points=[];perimeter=orthogonalPerimeter;rounded=0;shadow=0;comic=0;labelBackgroundColor=none;strokeWidth=1;fontFamily=Verdana;fontSize=12;align=center;" parent="7baba1c4bc27f4b0-8" vertex="1">
          <mxGeometry x="45" y="80" width="10" height="440" as="geometry"/>
        </mxCell>
        <mxCell id="T-mbdC-AUDBrGgFQMUog-2" value="" style="html=1;points=[];perimeter=orthogonalPerimeter;" vertex="1" parent="7baba1c4bc27f4b0-8">
          <mxGeometry x="55" y="165" width="10" height="40" as="geometry"/>
        </mxCell>
        <mxCell id="T-mbdC-AUDBrGgFQMUog-3" value="编排预案执行步骤" style="edgeStyle=orthogonalEdgeStyle;html=1;align=left;spacingLeft=2;endArrow=block;rounded=0;entryX=1;entryY=0;" edge="1" target="T-mbdC-AUDBrGgFQMUog-2" parent="7baba1c4bc27f4b0-8">
          <mxGeometry x="0.475" relative="1" as="geometry">
            <mxPoint x="55" y="145" as="sourcePoint"/>
            <Array as="points">
              <mxPoint x="90" y="145"/>
              <mxPoint x="90" y="165"/>
            </Array>
            <mxPoint as="offset"/>
          </mxGeometry>
        </mxCell>
        <mxCell id="T-mbdC-AUDBrGgFQMUog-7" value="保存预案对象" style="html=1;verticalAlign=bottom;endArrow=block;strokeColor=#949494;" edge="1" parent="7baba1c4bc27f4b0-8">
          <mxGeometry width="80" relative="1" as="geometry">
            <mxPoint x="60" y="225" as="sourcePoint"/>
            <mxPoint x="220" y="224" as="targetPoint"/>
          </mxGeometry>
        </mxCell>
        <mxCell id="T-mbdC-AUDBrGgFQMUog-11" value="" style="html=1;points=[];perimeter=orthogonalPerimeter;" vertex="1" parent="7baba1c4bc27f4b0-8">
          <mxGeometry x="55" y="275" width="10" height="25" as="geometry"/>
        </mxCell>
        <mxCell id="T-mbdC-AUDBrGgFQMUog-12" value="保存执行对象到队列" style="edgeStyle=orthogonalEdgeStyle;html=1;align=left;spacingLeft=2;endArrow=block;rounded=0;entryX=1;entryY=0;strokeColor=#1C1C1C;fontColor=#1C1C1C;" edge="1" target="T-mbdC-AUDBrGgFQMUog-11" parent="7baba1c4bc27f4b0-8">
          <mxGeometry relative="1" as="geometry">
            <mxPoint x="60" y="255" as="sourcePoint"/>
            <Array as="points">
              <mxPoint x="85" y="255"/>
            </Array>
          </mxGeometry>
        </mxCell>
        <mxCell id="T-mbdC-AUDBrGgFQMUog-19" value="return" style="html=1;verticalAlign=bottom;endArrow=open;dashed=1;endSize=8;strokeColor=#1C1C1C;fontColor=#1C1C1C;" edge="1" parent="7baba1c4bc27f4b0-8" source="7baba1c4bc27f4b0-3">
          <mxGeometry relative="1" as="geometry">
            <mxPoint x="140" y="390" as="sourcePoint"/>
            <mxPoint x="60" y="400" as="targetPoint"/>
            <Array as="points">
              <mxPoint x="340" y="400"/>
            </Array>
          </mxGeometry>
        </mxCell>
        <mxCell id="T-mbdC-AUDBrGgFQMUog-20" value="return" style="html=1;verticalAlign=bottom;endArrow=open;dashed=1;endSize=8;strokeColor=#1C1C1C;fontColor=#1C1C1C;exitX=0;exitY=0.775;exitDx=0;exitDy=0;exitPerimeter=0;" edge="1" parent="7baba1c4bc27f4b0-8" source="7baba1c4bc27f4b0-16">
          <mxGeometry relative="1" as="geometry">
            <mxPoint x="490" y="420.05999999999995" as="sourcePoint"/>
            <mxPoint x="60" y="420" as="targetPoint"/>
          </mxGeometry>
        </mxCell>
        <mxCell id="T-mbdC-AUDBrGgFQMUog-21" value="" style="html=1;points=[];perimeter=orthogonalPerimeter;fontColor=#1C1C1C;" vertex="1" parent="7baba1c4bc27f4b0-8">
          <mxGeometry x="55" y="335" width="10" height="40" as="geometry"/>
        </mxCell>
        <mxCell id="T-mbdC-AUDBrGgFQMUog-22" value="出队列执行" style="edgeStyle=orthogonalEdgeStyle;html=1;align=left;spacingLeft=2;endArrow=block;rounded=0;entryX=1;entryY=0;strokeColor=#1C1C1C;fontColor=#1C1C1C;" edge="1" target="T-mbdC-AUDBrGgFQMUog-21" parent="7baba1c4bc27f4b0-8">
          <mxGeometry relative="1" as="geometry">
            <mxPoint x="60" y="315" as="sourcePoint"/>
            <Array as="points">
              <mxPoint x="85" y="315"/>
            </Array>
          </mxGeometry>
        </mxCell>
        <mxCell id="T-mbdC-AUDBrGgFQMUog-24" value="dispatch" style="html=1;verticalAlign=bottom;endArrow=block;strokeColor=#1C1C1C;fontColor=#1C1C1C;" edge="1" parent="7baba1c4bc27f4b0-8">
          <mxGeometry width="80" relative="1" as="geometry">
            <mxPoint x="70" y="350" as="sourcePoint"/>
            <mxPoint x="387" y="346" as="targetPoint"/>
          </mxGeometry>
        </mxCell>
        <mxCell id="T-mbdC-AUDBrGgFQMUog-25" value="dispatch" style="html=1;verticalAlign=bottom;endArrow=block;strokeColor=#1C1C1C;fontColor=#1C1C1C;" edge="1" parent="7baba1c4bc27f4b0-8" target="7baba1c4bc27f4b0-16">
          <mxGeometry width="80" relative="1" as="geometry">
            <mxPoint x="70" y="360" as="sourcePoint"/>
            <mxPoint x="150" y="360" as="targetPoint"/>
          </mxGeometry>
        </mxCell>
        <mxCell id="7baba1c4bc27f4b0-27" value="sdk http polling" style="html=1;verticalAlign=bottom;endArrow=open;dashed=1;endSize=8;labelBackgroundColor=none;fontFamily=Verdana;fontSize=12;strokeColor=#949494;exitX=0.1;exitY=0.05;exitDx=0;exitDy=0;exitPerimeter=0;" parent="1" source="7baba1c4bc27f4b0-16" edge="1">
          <mxGeometry x="-0.7674" y="-9" relative="1" as="geometry">
            <mxPoint x="280" y="184" as="targetPoint"/>
            <mxPoint x="710" y="184" as="sourcePoint"/>
            <mxPoint as="offset"/>
          </mxGeometry>
        </mxCell>
        <mxCell id="7baba1c4bc27f4b0-40" value="用户触发预案" style="shape=note;whiteSpace=wrap;html=1;size=14;verticalAlign=top;align=left;spacingTop=-6;rounded=0;shadow=0;comic=0;labelBackgroundColor=none;strokeWidth=1;fontFamily=Verdana;fontSize=12" parent="1" vertex="1">
          <mxGeometry x="230" y="30" width="100" height="35" as="geometry"/>
        </mxCell>
        <mxCell id="7baba1c4bc27f4b0-41" value="使用Redis保存执行记录" style="shape=note;whiteSpace=wrap;html=1;size=14;verticalAlign=top;align=left;spacingTop=-6;rounded=0;shadow=0;comic=0;labelBackgroundColor=none;strokeWidth=1;fontFamily=Verdana;fontSize=12" parent="1" vertex="1">
          <mxGeometry x="409" y="30" width="150" height="35" as="geometry"/>
        </mxCell>
        <mxCell id="7baba1c4bc27f4b0-42" value="平台api处理" style="shape=note;whiteSpace=wrap;html=1;size=14;verticalAlign=top;align=left;spacingTop=-6;rounded=0;shadow=0;comic=0;labelBackgroundColor=none;strokeWidth=1;fontFamily=Verdana;fontSize=12" parent="1" vertex="1">
          <mxGeometry x="569" y="30" width="100" height="35" as="geometry"/>
        </mxCell>
        <mxCell id="7baba1c4bc27f4b0-43" value="通过http长轮轮训下发预案执行操作, 长轮训可以链接多个执行平台实例,预案执行对象添加版本号,通过与本地比对,判断是否已经执行过预案" style="shape=note;whiteSpace=wrap;html=1;size=14;verticalAlign=top;align=left;spacingTop=-6;rounded=0;shadow=0;comic=0;labelBackgroundColor=none;strokeWidth=1;fontFamily=Verdana;fontSize=12" parent="1" vertex="1">
          <mxGeometry x="700" y="20" width="309" height="45" as="geometry"/>
        </mxCell>
        <mxCell id="T-mbdC-AUDBrGgFQMUog-17" value="" style="shape=umlLifeline;participant=umlActor;perimeter=lifelinePerimeter;whiteSpace=wrap;html=1;container=1;collapsible=0;recursiveResize=0;verticalAlign=top;spacingTop=36;labelBackgroundColor=#ffffff;outlineConnect=0;fontColor=#1C1C1C;" vertex="1" parent="1">
          <mxGeometry x="160" y="80" width="20" height="520" as="geometry"/>
        </mxCell>
        <mxCell id="T-mbdC-AUDBrGgFQMUog-18" value="开始" style="html=1;verticalAlign=bottom;endArrow=block;strokeColor=#1C1C1C;fontColor=#1C1C1C;" edge="1" parent="1" source="T-mbdC-AUDBrGgFQMUog-17">
          <mxGeometry width="80" relative="1" as="geometry">
            <mxPoint x="190" y="420" as="sourcePoint"/>
            <mxPoint x="270" y="420" as="targetPoint"/>
          </mxGeometry>
        </mxCell>
        <mxCell id="T-mbdC-AUDBrGgFQMUog-23" value="预案对象执行结果" style="html=1;verticalAlign=bottom;endArrow=open;dashed=1;endSize=8;strokeColor=#1C1C1C;fontColor=#1C1C1C;" edge="1" parent="1" target="T-mbdC-AUDBrGgFQMUog-17">
          <mxGeometry relative="1" as="geometry">
            <mxPoint x="270" y="520" as="sourcePoint"/>
            <mxPoint x="190" y="520" as="targetPoint"/>
          </mxGeometry>
        </mxCell>
      </root>
    </mxGraphModel>
  </diagram>
</mxfile>
